<svg width="496" height="149" viewBox="0 0 496 149" fill="none" xmlns="http://www.w3.org/2000/svg">
<g clip-path="url(#clip0_229_197)">
<g clip-path="url(#clip1_229_197)">
<path fill-rule="evenodd" clip-rule="evenodd" d="M424.814 64.0842C426.275 63.7593 428.591 64.0251 429.981 64.5271C431.691 65.1177 431.263 67.1258 431.263 68.3956C431.263 69.9311 431.37 71.2009 430.123 72.4117C429.304 73.2385 428.056 74.4492 426.702 74.5674C425.206 74.6855 422.462 74.8331 421.393 74.1244C419.754 73.0613 420.431 71.7915 420.395 69.9902C420.217 65.4721 419.326 65.2949 424.814 64.0842ZM469.962 2.60239H468.181C467.219 2.60239 467.896 1.62789 467.361 1.33259C467.076 1.18494 466.435 1.21447 466.328 1.68695C466.256 2.10038 466.506 2.60239 465.971 2.86816C465.259 3.22252 465.08 2.89769 464.332 3.19299C463.263 3.63594 464.154 4.28561 464.831 4.28561C465.259 4.28561 466.15 3.81313 466.328 4.49232C466.363 4.69903 466.328 5.02386 466.399 5.28963C466.435 5.52587 466.506 5.67352 466.542 5.99836C466.542 6.32319 466.613 6.47084 466.72 6.67755C466.969 7.06144 466.898 7.20909 467.325 7.47486C467.717 7.71111 467.575 7.7997 468.216 8.00641C468.43 8.095 468.715 8.21312 469 8.21312C469.677 8.21312 471.423 8.27218 471.887 8.12453C472.1 8.03594 472.136 8.00641 472.457 7.97688C472.599 7.97688 473.027 7.94735 473.134 7.88829C473.49 7.74064 473.561 6.73661 472.956 6.73661C471.708 6.73661 472.314 6.67755 471.388 6.91379C471.138 6.97285 470.889 7.09097 470.604 7.09097H468.751C468.288 7.09097 468.003 6.58896 467.931 6.35272C467.86 6.11648 467.896 5.96883 467.789 5.73258C467.504 5.17151 467.611 5.02386 467.611 4.28561C467.611 4.0789 467.789 3.99031 468.003 3.93125C468.466 3.84266 468.608 3.63594 469.214 3.66547C469.677 3.695 470.283 3.51782 470.461 3.93125C470.675 4.52185 470.069 5.58493 471.031 5.58493C471.316 5.58493 471.566 5.43728 471.673 5.28963C472.065 4.78762 471.53 3.96078 472.243 3.96078C472.528 3.96078 472.777 4.10843 473.098 4.10843C473.49 4.10843 473.811 4.13796 474.096 4.01984C474.844 3.66547 474.809 2.77957 473.989 2.60239C473.704 2.54333 472.991 2.60239 472.635 2.60239C472.065 2.60239 471.815 2.60239 471.851 2.10038C471.851 1.15541 472.136 0.505748 471.281 0.505748C470.996 0.505748 470.746 0.623868 470.639 0.771519C470.176 1.21447 470.96 2.60239 469.962 2.60239ZM479.94 3.87219C479.94 3.54735 480.51 3.19299 480.653 3.07487L481.187 2.48427C481.223 2.42521 481.258 2.36615 481.294 2.27756C481.757 1.50977 482.684 1.39165 482.684 0.682929C482.684 0.328567 482.292 0.00373527 481.971 0.00373527C481.365 0.00373527 481.187 0.653399 481.08 0.86011C480.973 1.09635 480.581 1.36212 480.225 1.62789C479.762 2.01179 480.047 2.15944 479.548 2.60239C479.263 2.89769 479.37 3.04534 478.835 3.54735C478.622 3.72453 477.98 4.61044 477.766 4.93527C477.588 5.20104 477.695 5.14198 477.41 5.37822C477.196 5.58493 477.018 5.85071 476.804 6.05742C476.483 6.44131 476.59 6.17554 476.377 6.79567C476.198 7.26815 475.949 7.68158 476.519 7.97688C476.947 8.21312 477.41 8.30171 477.695 7.85876L478.158 7.06144C478.23 6.88426 478.336 6.2346 478.693 5.90977C478.764 5.82118 478.8 5.79165 478.907 5.70305C479.049 5.58493 479.263 5.43728 479.405 5.34869C479.869 5.05339 480.688 4.34467 481.116 5.02386C481.793 6.11648 480.831 5.96883 481.294 7.15003C481.365 7.32721 481.401 7.50439 481.472 7.65204C481.544 7.82923 481.686 7.91782 481.829 8.00641C482.114 8.21312 482.862 8.27218 483.076 8.27218C484.109 8.18359 483.682 8.18359 484.323 8.00641C484.501 7.94735 484.644 7.91782 484.822 7.7997C484.964 7.68158 485.071 7.56345 485.214 7.44533C485.356 7.32721 485.463 7.29768 485.642 7.20909C485.748 7.15003 485.784 7.1205 485.855 7.06144C486.604 6.55943 486.354 6.50037 486.604 6.02789C486.711 5.85071 486.782 5.85071 486.853 5.61446C486.924 5.31916 486.817 4.81715 486.176 4.81715C485.748 4.81715 485 6.05742 484.751 6.41178C484.679 6.55943 484.572 6.64802 484.43 6.73661C483.789 7.09097 483.824 7.09097 483.183 7.09097C482.363 7.09097 482.791 6.11648 482.684 5.02386C482.648 4.6695 482.399 4.43326 482.114 4.25608L481.009 3.96078C480.831 3.96078 479.94 4.34467 479.94 3.87219ZM401.438 5.40775C401.438 5.73258 400.974 6.44131 400.582 6.61849C400.404 6.70708 400.19 6.70708 400.119 6.50037V4.61044C400.155 4.13796 400.939 4.13796 401.188 4.6695C401.295 4.90574 401.438 5.05339 401.438 5.40775ZM396.271 5.2601C396.092 5.05339 396.164 5.08292 396.199 4.81715C396.199 4.63997 396.235 4.40373 396.271 4.25608C396.377 3.45876 395.344 3.28158 395.237 3.81313C395.166 4.28561 395.201 6.05742 395.201 6.61849C395.201 6.97285 395.38 7.09097 395.487 7.32721C395.522 7.4158 395.522 7.56345 395.629 7.65204C396.057 8.15406 396.769 6.8252 396.805 6.55943C396.876 6.17554 396.876 6.17554 397.126 5.90977C397.411 5.61446 397.304 5.52587 397.803 5.08292C397.91 5.02386 398.017 4.93527 398.088 4.87621C398.302 4.69903 398.337 4.46279 398.622 4.40373C398.801 4.49232 398.872 4.55138 398.872 4.75809V6.11648C398.872 6.32319 398.801 6.58896 398.587 6.58896C398.337 6.58896 398.088 5.88024 397.553 6.17554C397.197 6.38225 397.268 6.88426 397.625 7.1205C397.696 7.17956 398.444 7.59298 397.696 7.94735C397.482 8.06547 396.841 8.36077 396.841 8.59701C396.841 8.95137 397.696 8.86278 398.017 8.83325C398.373 8.77419 398.801 8.36077 399.014 8.21312C399.264 8.03594 399.335 7.88829 399.727 7.7997C400.226 7.71111 400.012 7.85876 400.547 7.53392C400.903 7.32721 401.117 7.32721 401.366 7.20909C401.936 7.00238 402.008 6.58896 402.328 6.08695C402.435 5.88024 402.649 5.64399 402.649 5.40775C402.649 5.20104 402.257 4.55138 402.15 4.40373C402.008 4.25608 401.901 4.13796 401.758 3.99031C401.687 3.90172 401.651 3.87219 401.544 3.7836C401.259 3.48829 400.974 3.51782 400.654 3.48829C399.941 3.3997 400.19 3.01581 399.976 2.66145C399.727 2.36615 398.765 2.27756 398.658 2.72051C398.551 3.31111 398.943 3.16346 398.23 3.66547C397.375 4.28561 397.981 3.87219 397.304 4.19702C396.591 4.55138 396.698 5.08292 396.271 5.2601ZM420.395 4.84668C420.395 4.75809 420.431 4.49232 420.466 4.43326C420.538 4.16749 421.108 4.0789 421.535 4.6695C421.642 4.81715 421.713 4.87621 421.785 4.99433C422.034 5.28963 421.963 5.52587 421.785 5.79165C421.535 6.05742 421.286 6.67755 420.823 6.67755C420.288 6.67755 420.431 6.08695 420.431 5.90977C420.431 5.52587 420.395 5.23057 420.395 4.84668ZM421.357 7.38627C421.999 7.1205 421.82 7.35674 422.604 6.55943C422.711 6.44131 422.747 6.35272 422.782 6.20507C422.925 5.5554 423.246 5.64399 422.854 4.72856C422.604 4.16749 422.569 4.31514 422.105 3.93125C421.999 3.81313 421.856 3.695 421.713 3.60641C421.393 3.34064 420.68 3.63594 420.466 3.28158C420.359 3.1044 420.502 2.86816 420.395 2.66145C420.181 2.27756 419.29 2.39568 419.29 2.72051C419.29 3.1044 419.433 3.37017 418.97 3.45876C418.435 3.60641 418.613 3.63594 418.293 3.93125C418.079 4.13796 417.794 4.16749 417.544 4.34467C417.366 4.46279 417.081 4.81715 416.832 4.81715C416.582 4.81715 416.867 4.25608 416.689 3.81313C416.582 3.63594 416.368 3.45876 416.048 3.48829C415.763 3.51782 415.62 3.695 415.513 3.90172C415.406 4.19702 415.477 4.28561 415.477 4.63997C415.477 4.81715 415.442 4.63997 415.477 4.90574C415.513 5.02386 415.477 5.11245 415.477 5.23057C415.477 6.02789 415.442 5.67352 415.62 6.38225C415.763 7.03191 415.584 6.79567 416.012 7.29768C416.119 7.44533 416.19 7.59298 416.404 7.59298C416.582 7.59298 416.725 7.4158 416.796 7.29768C417.259 6.73661 416.76 6.70708 417.509 5.99836C417.865 5.67352 417.794 5.61446 418.114 5.23057C418.328 5.02386 418.506 4.6695 418.756 4.49232C419.219 4.13796 419.611 4.40373 419.611 4.6695V5.76212C419.611 6.02789 419.255 7.09097 418.685 6.41178C418.435 6.14601 418.506 6.11648 418.15 6.11648C417.829 6.11648 417.58 6.76614 418.079 7.1205C418.863 7.65204 418.043 7.97688 417.722 8.18359C417.616 8.24265 417.58 8.30171 417.473 8.36077C417.402 8.41983 417.295 8.41983 417.188 8.50842C416.903 8.83325 417.687 8.86278 417.972 8.86278C418.399 8.86278 418.542 8.74466 418.791 8.59701C419.077 8.47889 419.326 8.44936 419.575 8.27218C419.825 8.06547 419.718 7.94735 420.181 7.82923C420.502 7.74064 421.036 7.50439 421.357 7.38627ZM442.274 2.07085C442.274 1.8346 442.453 1.71648 442.453 1.50977C442.453 1.21447 442.061 0.328567 441.526 0.91917C441.099 1.36212 441.241 1.56883 441.063 1.80507C440.6 2.5138 441.134 2.60239 439.531 2.60239C439.246 2.60239 438.818 2.57286 438.569 2.63192C438.39 2.69098 438.141 2.89769 438.141 3.07487C438.141 3.42923 438.604 3.63594 438.925 3.63594C439.602 3.63594 439.602 3.51782 439.923 3.51782C440.742 3.51782 440.243 4.0789 440.136 4.31514C440.065 4.61044 440.101 4.61044 439.887 4.84668L439.317 5.82118C439.246 5.90977 439.246 5.96883 439.139 6.02789C438.604 6.55943 438.96 6.20507 438.604 6.67755L438.248 7.09097C437.963 7.4158 437.963 8.30171 438.355 8.30171C438.64 8.30171 438.569 8.27218 438.854 8.095C438.996 8.00641 439.103 7.97688 439.246 7.88829C439.531 7.71111 439.459 7.56345 439.744 7.29768C440.03 6.97285 439.958 7.20909 440.243 6.64802C440.386 6.29366 440.564 6.26413 440.671 5.96883C440.707 5.79165 440.707 5.73258 440.849 5.58493C441.063 5.34869 441.384 4.87621 441.455 4.55138C441.526 4.34467 441.562 4.31514 441.633 4.16749C441.704 3.99031 441.669 3.87219 441.74 3.72453C441.989 3.13393 443.522 3.1044 443.522 4.16749C443.522 4.87621 443.593 5.02386 443.237 5.5554C442.916 6.02789 443.058 5.79165 442.88 6.2346C442.773 6.47084 442.56 6.67755 442.274 6.73661C441.811 6.85473 440.6 6.50037 440.6 6.97285C440.6 7.1205 440.813 7.23862 440.92 7.32721C441.277 7.62251 441.277 7.7997 441.633 7.88829C442.025 8.03594 442.845 8.00641 443.237 7.77017C443.415 7.65204 443.664 7.32721 443.771 7.15003C443.914 6.91379 444.127 6.79567 444.234 6.50037C444.341 6.2346 444.555 6.02789 444.555 5.70305V3.34064C444.555 3.19299 444.306 2.95675 444.199 2.83863C444.021 2.69098 443.949 2.60239 443.7 2.5138C443.023 2.27756 442.274 2.66145 442.274 2.07085ZM426.025 4.31514C426.203 4.31514 426.524 4.19702 426.738 4.13796C427.415 3.93125 427.308 3.90172 427.914 3.60641C428.128 3.51782 428.306 3.48829 428.555 3.3997C429.018 3.25205 428.698 3.22252 429.802 2.92722C430.337 2.77957 430.479 2.63192 431.228 2.63192C431.727 2.63192 432.546 2.57286 432.867 2.75004C432.974 2.8091 433.01 2.86816 433.116 2.92722C433.33 3.07487 433.402 3.16346 433.58 3.37017C433.687 3.45876 433.687 3.48829 433.793 3.60641C434.15 4.13796 434.15 4.0789 433.865 4.52185C433.615 4.90574 433.651 5.11245 433.01 5.61446L432.083 6.02789C431.905 6.08695 431.691 6.08695 431.513 6.14601C430.836 6.41178 431.406 6.32319 430.444 6.44131C429.802 6.5299 429.874 6.70708 429.339 6.73661C428.912 6.73661 428.377 6.79567 428.733 7.20909C428.84 7.32721 428.947 7.4158 429.09 7.53392C429.731 8.095 430.23 8.00641 431.157 7.7997C431.549 7.71111 431.549 7.53392 432.012 7.38627C432.404 7.23862 432.903 7.38627 433.366 6.91379C433.615 6.64802 433.865 6.55943 434.114 6.38225C434.257 6.29366 434.399 6.11648 434.542 5.99836C434.684 5.85071 434.827 5.76212 434.969 5.58493C435.255 5.23057 435.148 4.75809 435.255 4.25608C435.29 3.99031 435.183 3.81312 435.183 3.54735C435.183 3.1044 434.969 2.75004 434.577 2.5138C434.15 2.27756 434.328 2.30709 434.114 2.12991C433.829 1.9232 433.223 1.77554 432.724 1.77554H430.408C429.731 1.77554 429.624 1.89366 429.161 1.9232C428.591 1.95273 428.627 2.18897 428.27 2.33662C428.092 2.42521 427.415 2.48427 426.845 2.72051C426.631 2.8091 426.453 2.86816 426.239 2.95675C425.918 3.07487 425.847 3.04534 425.598 3.25205C425.063 3.72453 425.491 4.31514 426.025 4.31514ZM386.364 3.45876C386.364 2.60239 386.649 2.63192 386.649 2.12991V0.564808C386.649 -0.114385 385.081 -0.350627 385.117 0.83058C385.117 1.33259 385.153 4.16749 385.081 4.43326C384.903 5.05339 384.761 5.70305 384.939 6.35272C385.01 6.55943 385.046 6.70708 385.117 6.94332C385.331 7.88829 385.83 7.7997 386.364 8.06547C386.756 8.27218 387.184 8.44936 387.647 8.44936C388.538 8.44936 388.182 8.47889 388.93 8.27218L390.32 7.85876L391.068 7.32721C391.638 6.88426 391.424 7.35674 391.887 6.47084C392.208 5.90977 392.921 5.43728 391.567 5.43728C390.925 5.43728 390.355 6.35272 389.892 6.64802C389.714 6.73661 389.571 6.76614 389.393 6.85473C388.752 7.20909 388.68 7.03191 388.253 7.17956C388.075 7.23862 387.932 7.35674 387.683 7.35674C387.398 7.35674 386.792 7.09097 386.685 6.97285C386.614 6.94332 386.507 6.79567 386.471 6.73661C386.364 6.50037 386.435 6.35272 386.435 6.05742C386.435 5.88024 386.4 5.85071 386.364 5.70305V3.45876ZM406.676 4.34467C406.676 4.0789 406.711 3.87219 406.783 3.66547C406.961 2.83863 406.89 1.36212 406.89 0.476218C406.89 -0.202976 405.429 -0.173446 405.393 0.771519C405.357 2.75004 405.357 4.63997 405.357 6.61849C405.357 6.97285 405.464 7.17956 405.642 7.38627C405.714 7.47486 405.821 7.56345 405.927 7.65204C405.999 7.71111 406.034 7.71111 406.106 7.77017C406.498 8.00641 406.533 8.03594 407.032 8.21312C407.709 8.44936 407.602 8.44936 408.315 8.44936C409.099 8.44936 410.667 7.91782 411.13 7.56345C411.273 7.4158 411.451 7.32721 411.629 7.20909C412.057 6.94332 412.163 6.58896 412.413 6.2346C412.484 6.14601 413.09 5.43728 412.27 5.43728C411.308 5.43728 411.593 5.5554 410.774 6.08695C410.667 6.17554 410.667 6.14601 410.596 6.26413C410.453 6.41178 410.417 6.47084 410.239 6.58896C409.099 7.29768 409.135 6.97285 408.6 7.17956C408.137 7.38627 407.887 7.44533 407.424 7.20909C407.032 7.00238 406.676 6.88426 406.676 6.20507V4.34467ZM451.254 2.77957C451.254 3.57688 451.539 3.57688 451.539 4.55138C451.539 4.81715 451.504 5.2601 451.539 5.52587C451.575 5.82118 451.789 5.90977 451.824 6.29366C451.86 6.55943 451.967 6.85473 452.145 7.03191C452.359 7.26815 452.395 7.23862 452.644 7.59298C452.787 7.82923 452.929 7.97688 453.179 8.15406C453.606 8.50842 454.39 8.53795 454.818 8.21312C455.566 7.68158 455.281 7.44533 455.602 7.20909C455.78 7.09097 455.958 7.00238 455.958 6.73661C455.958 6.35272 456.065 5.85071 455.602 5.85071C455.032 5.85071 454.711 6.8252 454.176 6.8252C453.82 6.8252 453.749 6.67755 453.571 6.47084C453.214 6.14601 453.214 6.05742 453.072 5.5554C453 5.40775 452.965 5.28963 452.929 5.14198C452.822 4.81715 452.929 4.58091 452.751 4.25608C452.644 4.10843 452.573 4.04937 452.573 3.84266C452.537 3.34064 452.68 2.15944 452.466 1.8346C452.323 1.59836 451.931 1.45071 451.682 1.62789C451.183 1.95273 451.254 2.30709 451.254 2.77957ZM458.274 2.39568C458.274 2.89769 458.346 2.92722 458.916 3.42923C459.201 3.66547 459.379 3.90172 459.522 4.22655L459.735 4.72856C459.985 5.37822 459.522 6.29366 460.305 6.29366C460.769 6.29366 461.196 5.99836 461.196 5.46681C461.196 4.46279 461.303 4.49232 460.876 3.96078L460.484 3.42923C460.163 3.04534 460.484 3.31111 459.949 2.75004C459.807 2.60239 459.7 2.57286 459.557 2.45474C459.379 2.27756 459.165 1.9232 458.809 1.9232C458.488 1.9232 458.274 2.12991 458.274 2.39568ZM445.268 1.56883C445.268 2.30709 445.197 2.27756 445.517 2.75004C445.624 2.89769 445.66 3.07487 445.767 3.22252C446.194 3.84265 445.98 3.90172 446.337 4.19702C446.658 4.52185 446.693 4.69903 447.335 4.78762C447.584 4.84668 447.798 4.84668 448.012 4.75809C448.653 4.43326 448.332 4.16749 448.083 3.81313C447.869 3.45876 447.513 3.28158 447.049 2.75004C446.978 2.63192 446.943 2.60239 446.836 2.5138C446.479 2.12991 446.729 2.04132 446.266 1.45071C445.909 0.9487 445.268 1.09635 445.268 1.56883ZM388.288 1.74601C388.288 1.98226 388.573 2.39568 388.894 2.54333C389.072 2.63192 389.286 2.66145 389.464 2.72051C389.749 2.83863 389.643 2.95675 390.106 2.95675C390.284 2.95675 390.498 2.8091 390.498 2.60239C390.498 2.39568 390.391 2.27756 390.248 2.15944C389.928 1.74601 389.928 1.89367 389.464 1.5393C389.215 1.30306 389.179 1.30306 388.859 1.30306C388.609 1.30306 388.288 1.5393 388.288 1.74601ZM410.275 0.9487C410.275 1.36212 410.738 1.68695 411.201 1.89366C411.665 2.07085 411.914 2.36615 412.163 2.12991C412.662 1.65742 411.95 1.33259 411.7 1.09635C411.379 0.712459 411.522 0.505748 410.774 0.505748C410.524 0.505748 410.275 0.741989 410.275 0.9487ZM408.671 1.68695C408.671 1.98226 409.063 2.30709 409.348 2.45474C409.562 2.60239 410.061 2.95675 410.275 2.95675C410.809 2.95675 410.845 2.54333 410.56 2.15944C410.31 1.8346 410.168 1.86413 409.99 1.71648C409.74 1.50977 409.705 1.30306 409.241 1.30306C408.956 1.30306 408.671 1.48024 408.671 1.68695ZM85.2537 34.2587C92.9151 33.2252 90.777 45.2439 90.9196 49.0238C91.0265 51.7701 91.2759 51.652 88.8528 53.6305C85.3962 56.4359 82.2604 54.3097 75.8462 55.7271C73.3162 56.2882 73.0668 56.9674 70.0735 55.8453C68.1848 55.1365 65.2628 55.2842 63.196 55.3432C57.2807 55.4318 56.3899 52.1245 56.3542 48.0788C56.3542 45.9527 56.3542 43.797 56.3542 41.6708C56.3542 39.6037 55.9979 38.0386 58.1003 36.5916C60.0958 35.2332 69.5033 35.8533 72.1403 36.1191C76.844 36.5621 80.55 34.8788 85.2537 34.2587ZM250.954 22.1218C251.417 23.6869 254.945 25.5473 256.762 25.7245C258.045 25.8426 259.577 26.256 260.824 26.5513C262.749 26.9943 264.067 26.5809 265.492 26.9648C270.446 28.2641 268.985 27.5554 274.33 27.7621C278.748 27.9688 280.067 27.0829 280.922 30.7446C281.492 33.1366 280.815 35.4104 281.207 37.3003C281.67 39.6037 281.563 41.9366 281.385 44.2399C280.922 49.3782 278.57 52.0654 273.082 54.3687C270.125 55.6385 264.815 60.7177 263.39 63.2573C262.25 65.2654 261.394 66.9191 259.72 68.6613C259.078 69.3701 258.615 70.8761 258.508 71.762C257.546 80.7687 249.885 77.668 243.898 80.2372C240.584 81.6841 243.47 83.6922 245.644 84.3419C248.317 85.1687 250.633 85.4049 253.341 86.1727C254.695 89.362 252.486 90.366 252.058 93.0532C251.951 93.762 251.702 96.6559 251.595 96.9217C250.455 99.5499 249.065 104.836 248.994 107.464C248.958 110.092 249.243 113.222 248.566 115.703C247.675 118.981 248.815 121.491 248.138 125.212C247.996 125.832 248.352 126.245 248.388 127.013C248.423 128.194 247.96 130.32 248.103 131.059C248.78 134.277 247.64 143.845 251.951 144.908C254.339 142.664 258.187 127.426 258.544 123.912C258.757 121.934 259.328 120.251 259.791 118.331C260.539 115.171 260.218 108.557 260.61 105.928C260.86 104.038 261.394 102.089 261.715 100.17C262.107 97.9848 261.858 96.6559 262.784 94.4707C264.922 89.421 262.357 85.8479 268.236 85.9955C270.41 86.0546 272.94 85.907 274.829 86.911C279.675 89.5687 279.212 91.9606 279.247 96.4492C279.283 100.967 278.071 103.832 279.604 108.379C280.851 112.13 281.706 114.404 286.089 116.264C291.007 118.331 294.178 117.534 299.131 117.711C303.194 117.888 308.147 118.597 312.173 119.158C316.663 119.778 320.547 121.136 324.859 121.934C328.244 122.583 338.97 125.507 341.714 127.397C346.133 130.379 347.523 129.228 355.291 136.079C357.857 138.352 359.745 142.487 362.489 143.579C365.304 142.487 364.485 141.66 362.881 138.057C361.919 135.931 361.812 133.953 360.565 131.708C358.462 127.958 355.54 124.385 351.621 121.845C341.928 115.585 333.661 114.61 322.507 111.451C317.055 109.885 311.71 109.679 306.151 108.852C296.352 107.434 290.721 110.506 290.579 105.042C290.436 99.7861 290.436 94.7365 290.187 89.4801C289.973 84.7848 286.98 81.0345 282.098 78.7607C280.209 77.8747 276.325 77.4318 274.152 77.4318C272.584 77.4318 267.702 78.5835 268.201 75.9848C268.236 75.7781 271.016 70.9352 271.479 69.9902C272.655 67.6278 278.428 62.2238 281.314 60.954C283.915 59.8023 285.697 59.5956 287.301 57.2922C290.65 52.5379 291.969 49.8802 292.717 44.358C293.073 41.5527 293.43 39.3674 293.038 36.5325C292.574 33.4614 292.753 31.3943 292.503 28.5594C292.289 26.4923 290.65 24.3071 289.403 22.5057C287.871 20.2614 286.552 19.5232 283.63 18.6963C277.394 16.954 273.795 19.1097 267.167 18.7259C264.352 18.5487 261.216 19.1983 258.437 19.5527C254.695 20.0547 253.769 19.9661 250.954 22.1218ZM310.285 39.899C310.178 34.4064 315.915 35.6466 319.906 35.6762C322.294 35.7057 324.289 35.6171 326.712 35.8238C329.278 36.0305 331.202 35.499 334.124 35.7943C338.507 36.2372 344.921 35.3809 349.803 35.6762C356.182 36.0896 355.362 40.5191 355.362 44.2104C355.362 46.5433 355.754 47.9016 355.505 50.3526C355.327 52.2426 355.255 54.8412 355.291 56.7607C355.362 61.0721 355.434 64.7929 355.826 69.1338C356.182 72.766 355.006 77.2251 355.469 81.2707C355.612 82.4519 355.683 92.3445 355.505 92.9942C354.008 98.1915 341.607 95.8586 337.83 96.0358C335.336 96.1539 332.806 96.0948 330.276 96.0948C328.031 96.1244 325.608 95.8881 323.505 95.9472C320.939 96.0063 318.801 96.4197 316.129 96.2425C314.668 96.1834 311.425 95.2089 310.249 94.4707C308.503 93.3781 309.144 90.0412 309.216 88.417C309.43 84.1056 310.605 80.8868 310.249 76.3392C310.107 74.3311 310.142 72.3821 309.964 70.2855C309.786 68.0707 310.748 66.2399 310.427 64.1137C309.715 59.6546 310.392 56.2291 310.249 51.7996C310.178 49.5258 310.249 48.4332 309.928 46.0412C309.75 44.6238 310.32 41.907 310.285 39.899ZM170.313 45.8345C171.097 47.5473 170.919 53.9553 170.741 56.052C170.562 57.9714 170.669 59.7432 170.598 61.6627C170.562 63.5526 171.061 65.7379 170.99 67.1553C170.919 69.1634 170.883 71.2009 170.919 73.209C170.954 75.3056 170.349 76.7526 170.812 78.7607C171.667 82.511 170.741 91.8425 170.598 96.4492C170.562 97.8667 170.705 97.8076 170.99 99.0774C171.168 99.9042 170.598 106.608 170.562 107.641C170.491 109.206 170.883 111.569 170.919 113.4C170.954 115.437 170.598 117.12 170.598 119.187C170.634 121.077 170.669 123.026 170.598 124.916C170.562 126.659 170.455 129.198 170.741 130.852C171.168 133.185 170.847 134.455 170.919 136.61C170.99 138.116 171.738 139.711 172.273 141.187C172.594 142.044 173.52 151.405 177.333 148.097C178.794 146.828 177.939 143.579 179.507 141.069C179.97 140.331 179.863 139.681 180.077 138.855C180.504 137.142 180.647 135.488 181.146 133.687C181.823 131.147 181.573 130.793 181.823 128.489C182.072 126.57 182.642 124.887 182.642 122.849C182.607 119.099 182.322 115.437 182.286 111.628C182.286 107.848 182.286 104.098 182.286 100.288C182.25 98.4573 181.93 96.3902 182.072 94.6774C182.357 91.3996 182.749 86.7043 182.464 83.7217C182.25 81.6841 182.001 79.9419 182.144 77.8747C182.393 74.1539 182.25 70.1969 182.144 66.4466C182.037 62.5486 182.429 59.0936 182.25 55.1661C182.144 53.158 182.072 51.209 182.144 49.201C182.179 46.6318 182.714 46.1298 185.814 46.2184C188.558 46.2775 190.019 45.3916 192.157 45.4802C196.148 45.6278 195.578 44.6238 198.072 44.5057C200.103 44.4171 201.386 44.6829 203.239 43.5607C206.589 41.4936 204.807 38.7178 198.82 38.452C196.611 38.3634 195.079 37.8614 192.905 37.507C188.914 36.8278 182.464 38.3339 182.429 34.4654C182.393 30.5379 181.858 26.699 181.823 22.9191C181.787 19.5822 179.649 17.0131 177.654 14.2077C177.048 13.3514 176.3 10.3098 174.375 11.5205C173.698 11.9634 172.059 14.7393 171.81 15.5071C170.17 20.1728 171.81 34.2882 170.669 36.2077C169.208 38.7178 161.226 37.448 158.625 37.6251C156.986 37.7433 149.324 40.401 148.505 41.5527C146.402 44.5647 155.81 44.7124 157.235 44.7714C159.266 44.86 161.191 45.362 163.257 45.4802C165.68 45.6278 167.925 45.5983 170.313 45.8345ZM11.5975 79.1445C11.8825 77.3432 12.3814 76.664 12.3814 74.5083C12.3458 73.0318 12.0963 70.6103 12.809 69.3405C14.5908 66.0922 17.6909 65.5607 21.6107 66.5647C26.9559 67.9231 25.5305 76.4573 25.8156 79.3217C26.065 81.7727 25.8512 81.1821 25.4236 83.5445C24.9247 86.1727 25.6374 85.7593 25.7087 87.7378C25.7443 88.6828 25.4949 89.2439 25.388 90.1002C25.2098 91.0747 25.7799 91.2224 25.5661 92.3445C24.8178 96.8331 20.8268 95.0613 17.2633 94.6183C14.0919 94.2345 13.8068 91.7834 12.6665 90.3365C12.1676 89.7163 11.3837 89.3324 11.0986 88.919C10.7066 88.2989 11.3837 80.2962 11.5975 79.1445ZM210.509 61.6036C211.471 63.7593 211.898 66.0627 211.186 68.307C211.007 68.9271 211.007 75.66 211.079 76.5754C211.328 79.558 212.326 77.3727 211.114 83.4855C210.615 85.8479 211.007 87.5016 211.114 89.8345C211.186 91.872 210.794 91.7834 211.613 93.821C211.934 94.6183 211.613 96.6855 211.364 97.6009C210.936 99.166 211.292 100.081 211.15 101.587C210.936 103.743 211.506 104.009 211.578 105.485C211.684 108.232 212.255 119.365 212.112 121.166C211.934 123.883 212.468 125.507 213.288 128.106C213.68 129.346 213.537 130.468 213.823 131.797C214.143 133.332 214.892 134.277 215.07 135.222C215.177 135.842 215.64 138.618 215.782 138.973C215.818 139.032 217.956 141.571 217.992 141.63C220.486 143.491 221.591 137.644 221.484 136.463C221.306 134.366 221.876 134.425 222.018 133.096C222.125 131.797 221.27 131.885 221.947 129.641C222.517 127.633 222.446 124.06 222.695 121.786C222.909 119.867 222.517 115.496 222.767 114.315C223.123 112.691 222.339 112.13 222.695 110.417C222.945 109.177 223.052 107.493 222.909 106.224C222.41 101.676 222.553 98.221 222.909 93.821C223.016 92.6103 222.268 91.4291 222.268 90.0412C222.232 87.7969 222.838 83.6036 222.41 81.7432C222.125 80.562 222.874 75.8372 222.945 74.1835C223.016 72.766 222.446 71.8801 222.553 70.4332C222.66 68.9862 222.66 67.4211 222.589 66.0036C222.553 64.8815 222.41 65.0587 223.052 64.1432C223.765 63.1687 223.23 63.1392 223.444 62.1942C223.729 61.0721 226.437 61.3674 227.542 61.1607C230.179 60.6882 234.811 61.1311 236.985 60.0681C239.337 58.8869 238.624 55.7862 236.343 54.5459C232.602 52.5083 223.301 53.2171 218.562 52.9218C215.39 52.7446 211.364 52.8922 208.085 52.8922C206.66 52.9218 204.166 52.4788 203.31 52.656C201.814 52.9808 200.388 52.7741 198.785 52.8627C194.829 53.0399 194.544 52.0359 191.266 54.6936C188.878 56.6721 190.411 59.005 192.549 60.5405C196.469 63.3754 205.769 61.7513 210.509 61.6036ZM331.202 51.0614C332.342 50.6775 335.371 51.1204 336.262 51.8882C337.759 53.158 338.044 54.0144 338.186 55.7271C338.4 59.1526 338.436 62.5486 338.436 66.0036C338.472 69.7835 339.184 72.3821 338.507 76.2801C337.866 80.0009 338.115 81.8023 332.592 81.8023C327.389 81.8023 326.712 80.4439 325.358 76.8707C324.895 75.7486 325.536 69.1929 325.501 67.303C325.465 64.0251 325.394 60.2157 326.071 57.056C326.392 55.609 324.859 55.2251 326.962 52.9808C327.924 51.9473 329.812 51.5043 331.202 51.0614ZM144.585 47.1634C141.805 47.8721 140.772 50.0869 140.416 52.2426C139.382 58.1486 137.209 66.5056 132.826 71.1714C132.22 71.7915 122.313 77.8452 120.852 78.6425C119.641 79.3217 115.258 81.1821 116.149 82.6882C117.111 84.4009 123.204 83.515 125.093 83.2492C129.476 82.6291 129.191 82.511 133.004 81.0049C137.102 79.4103 135.926 84.6667 135.712 86.3499C135.463 88.3284 135.534 92.1378 135.498 94.2935C135.498 95.5042 135.676 96.6559 135.676 97.8371C135.676 99.1365 135.32 100.347 135.32 101.647C135.249 104.275 135.32 106.814 135.534 109.442C135.748 112.218 134.144 113.783 134.394 116.559C134.714 120.044 135.249 119.749 134.785 123.558C134.643 124.621 135.783 135.872 135.819 138.264C135.819 139.799 136.425 144.731 139.596 142.221C142.732 139.711 142.269 132.86 142.946 129.612C143.16 128.519 143.587 127.456 143.694 126.363C143.801 125.153 143.516 124.119 143.73 122.879C144.3 119.512 144.941 119.099 144.264 115.408C143.445 111.067 145.298 105.633 144.621 100.82C144.086 97.0989 144.727 89.3915 145.191 85.464C146.01 79.0264 142.518 77.7566 146.295 70.758C147.792 67.9526 148.327 67.7754 149.146 64.4976C150.251 59.9795 153.137 54.0734 151.569 49.6144C150.785 47.3406 146.901 46.5433 144.585 47.1634ZM161.191 64.409C154.135 64.5566 155.133 76.0439 155.275 79.9123C155.347 81.566 154.99 82.8949 155.097 84.6962C155.168 86.1137 155.097 87.7969 155.097 89.2734C155.097 92.1969 153.992 94.9432 154.598 97.719C155.347 101.233 154.776 103.418 154.776 106.873C154.812 108.379 155.204 109.767 155.24 111.185C155.275 112.75 154.598 114.197 154.598 115.762C154.563 119.04 153.779 121.757 154.064 125.064C154.171 126.629 153.387 133.628 157.449 131.708C160.763 130.114 163.044 118.892 163.507 115.762C163.863 113.045 163.222 110.506 163.721 107.7C164.219 104.629 164.219 101.883 164.825 98.7526C165.146 97.1284 164.932 95.5338 165.182 93.8801C165.431 92.3445 165.716 90.6022 165.787 89.0667C165.966 85.6412 165.467 82.009 166.108 78.6721C166.643 76.0144 166.286 72.4707 166.607 69.5472C166.928 66.9191 164.006 64.3499 161.191 64.409ZM193.012 64.409C189.021 64.6157 187.346 66.86 187.097 69.9902C186.954 72.0868 187.988 86.6157 188.344 88.9486C188.807 92.0492 188.629 95.3861 189.128 98.2801C189.662 101.322 190.304 104.393 190.803 107.434C191.373 110.771 191.408 113.104 192.513 116.471C193.511 119.483 193.297 121.52 194.794 124.828C195.685 126.836 195.97 131.472 198.5 132.565C200.78 133.569 200.638 130.881 200.531 129.848C200.317 127.899 201.065 126.6 201.03 124.946C200.994 123.263 200.46 122.111 200.567 120.073C200.638 118.538 200.388 117.061 200.281 115.526C200.103 112.307 200.281 109.177 200.139 105.958C200.068 104.422 199.569 102.916 199.533 101.469C199.497 99.9042 199.533 98.3982 199.462 96.8036C199.141 91.0452 197.645 84.2237 198.357 78.7016C198.607 76.9298 198.072 75.9848 197.858 74.3607C197.645 72.7956 198.001 71.5848 198.036 70.1378C198.108 68.1298 195.863 64.2613 193.012 64.409ZM145.654 12.5245C139.418 13.7648 140.309 21.4426 139.347 24.248C138.456 26.9057 138.563 27.8802 136.959 30.5674C132.861 37.4184 133.467 35.7647 128.371 40.3715C124.95 43.4721 117.075 46.5433 116.077 47.4292C114.937 48.4627 115.828 49.5553 117.289 49.8802C118.607 50.1459 120.247 49.7916 121.636 49.7916C124.452 49.7916 127.872 50.0278 130.509 49.2305C134.999 47.9016 133.61 48.1969 137.28 46.248C140.843 44.3285 139.988 44.7124 142.483 41.9366C144.336 39.899 144.941 38.5996 145.975 36.2077C147.044 33.7862 148.683 33.048 149.36 30.3903C149.93 27.9393 150.857 26.0789 150.928 23.4211C150.999 20.9997 152.674 17.9581 151.747 15.7138C150.999 13.9715 147.899 12.0816 145.654 12.5245ZM213.537 18.0467C211.613 18.7259 208.085 19.6708 208.584 22.1809C209.083 24.4547 211.328 25.6359 213.537 26.699C215.07 27.4668 220.949 27.9393 222.375 27.201C222.802 26.9648 229.537 26.0493 230.998 25.7245C233.635 25.1339 236.201 26.0493 237.234 22.7715C238.09 19.9956 234.49 19.2279 232.352 18.7849C229.43 18.1943 215.889 17.2198 213.537 18.0467ZM390.818 11.6681C388.787 11.993 384.618 13.6467 384.404 15.6252C384.262 16.8655 386.293 20.9701 386.97 22.3581C387.718 23.9527 390.141 26.5218 391.424 28.0869C392.992 29.9768 394.881 30.656 396.52 33.4319C398.302 36.4144 402.008 34.8493 401.081 30.7151C400.511 28.1164 399.941 25.5768 399.371 23.0077C399.014 21.4426 397.233 17.8104 396.591 15.891C395.914 13.9124 393.74 11.1957 390.818 11.6681ZM430.765 11.7272C422.782 12.9084 421.749 16.4816 425.847 22.0332C427.914 24.8386 426.56 25.1044 430.088 27.7621C432.475 29.5634 433.259 31.099 435.076 32.8708C439.174 36.8574 441.134 31.4533 438.854 26.8466C438.355 25.8131 438.604 24.3366 438.426 23.5097C438.248 22.801 437.25 21.5017 436.858 20.2024C436.288 18.342 435.718 18.1943 435.219 16.895C434.542 15.2118 434.292 11.1957 430.765 11.7272ZM409.74 11.993C407.46 12.7608 404.003 13.4104 403.896 15.95C403.789 18.6077 405.927 20.4681 406.783 22.5057C407.388 24.0117 406.89 24.0413 408.172 25.6064C409.954 27.7916 413.161 31.7782 415.121 33.55C417.865 36.001 420.466 33.1366 419.825 30.3903C419.575 29.3272 418.72 27.8507 418.613 26.9648C418.079 23.0668 416.012 17.9581 415.763 15.7138C415.549 13.44 412.769 11.0185 409.74 11.993ZM197.751 9.86681C195.792 11.0775 192.691 20.4681 192.941 22.4171C193.261 24.8977 192.584 27.5849 193.796 29.8882C195.934 33.8453 204.273 34.3473 203.987 28.3527C203.916 27.3487 204.166 25.3701 204.094 24.7795C203.987 24.1889 203.453 21.3836 203.56 21.1178C204.522 18.2534 203.56 16.6883 202.348 14.0896C201.921 13.1447 199.462 8.77419 197.751 9.86681ZM482.791 12.0816C481.08 12.7017 477.659 12.495 477.802 15.5661C477.838 16.4225 477.446 15.891 477.588 16.7473C477.695 17.5446 477.98 17.2789 477.909 18.3715C477.731 20.3795 478.622 19.9661 479.085 21.2064C479.477 22.2104 479.691 23.244 479.833 24.2775C479.976 25.2225 480.902 25.3997 481.437 26.9648C482.577 30.2721 484.038 31.2171 484.751 32.3393C485.356 33.2842 488.599 34.6426 488.67 29.3272C488.706 29.0319 489.241 26.2265 489.347 25.8131C489.739 24.2775 489.419 23.6574 489.205 22.2399C488.956 20.6453 489.276 20.3795 488.777 18.5782C488.564 17.8104 488.421 16.0977 488.314 15.2413C488.136 13.2332 485 11.2252 482.791 12.0816ZM389.999 0.9487C389.999 1.06682 390.141 1.30306 390.213 1.42118C390.32 1.5393 390.426 1.62789 390.569 1.71648C390.961 1.95273 391.032 1.95273 391.282 2.10038C391.923 2.45474 392.351 1.74601 391.638 1.244C391.389 1.09635 391.246 1.06682 391.104 0.86011C390.854 0.594338 390.818 0.505748 390.355 0.505748C390.141 0.505748 389.999 0.83058 389.999 0.9487ZM324.289 42.0842C313.527 43.6788 316.129 47.5177 315.309 54.5164C314.597 60.5405 316.129 66.5942 315.951 68.4251C315.737 70.6103 315.38 70.817 315.808 73.1795C316.877 79.115 312.886 84.0761 320.761 89.0076C324.432 91.311 325.786 91.37 330.133 91.1633C333.59 90.9861 338.365 91.9311 341.18 90.6022C348.093 87.3835 350.48 83.7217 349.589 76.9298C349.34 75.0103 349.732 73.7405 349.589 72.264C349.447 70.758 348.414 70.1378 348.342 68.1889C348.307 66.6238 348.699 65.2358 348.663 63.7889C348.627 61.6332 347.879 61.6332 348.556 59.1526C349.34 56.3768 348.912 52.9513 349.34 50.1755C349.625 48.3741 350.124 47.7835 349.055 46.0117C348.378 44.9191 347.523 43.5902 346.169 42.9996C344.779 42.409 343.175 41.8775 341.607 42.2023C338.864 42.7929 338.757 41.9956 336.262 41.907C334.302 41.848 325.964 41.8184 324.289 42.0842ZM4.8982 36.7097C-1.33781 36.6211 0.0162922 43.2949 0.372636 46.75C0.871517 51.7406 0.835883 55.6976 0.800248 60.6882C0.764614 63.1097 1.29913 65.0587 1.44167 67.362C1.5842 70.1083 1.44167 71.5553 2.11872 74.3311C3.00958 78.2291 1.51294 82.8653 1.61984 87.2653C1.69111 89.421 0.907152 90.809 1.22786 93.0237C1.54857 95.2385 1.12096 96.9808 2.04745 99.225C3.68663 103.389 7.21444 105.161 12.132 105.987C14.662 106.401 25.3167 106.076 27.7755 105.367C32.1229 104.127 35.5438 101.469 36.6841 97.719C37.5037 95.0613 36.6128 94.1459 36.6128 91.6358C36.6128 89.2734 36.9691 87.7969 36.7553 85.2278C36.5415 82.7768 37.3967 80.9164 37.4324 78.7016C37.468 76.3392 35.5438 75.2761 35.5794 72.707C35.615 68.366 37.1117 64.2318 37.3967 59.5956C37.6818 55.1661 40.2475 51.4453 35.0805 48.2265C30.448 45.303 25.2098 46.6909 25.6018 52.1245C25.7087 54.1916 26.5283 56.4654 23.0005 56.613C12.3458 57.0855 11.9538 57.6466 12.3458 52.2721C12.524 50.0278 12.3458 47.3996 12.3458 45.1258C12.3814 41.0506 10.671 36.8278 4.8982 36.7097ZM300.628 12.052C298.062 13.0856 298.775 18.342 298.846 20.2024C298.989 23.3621 298.917 26.4628 299.06 29.5929C299.381 35.8238 298.917 42.5567 298.846 48.8466C298.846 51.9177 299.024 54.7231 299.024 57.7352C299.06 61.1016 299.666 63.9956 299.844 67.2734C300.378 77.0479 297.528 85.7298 299.167 95.7405C299.559 98.162 301.269 101.351 303.479 102.975C306.508 105.249 308.325 105.899 312.423 105.84C316.521 105.781 320.191 106.076 324.396 105.958C328.423 105.869 332.414 106.165 336.619 106.047C340.895 105.899 345.206 105.987 349.518 105.987C353.046 105.958 356.93 106.43 360.102 104.836C362.097 103.832 365.803 100.967 366.409 99.0479C367.549 95.5633 367.193 83.7513 366.801 79.7647C366.338 75.217 367.692 66.3285 367.05 60.2748C366.765 57.2627 367.442 53.7486 367.335 50.4708C367.228 47.1339 367.05 44.6238 367.264 41.1983C367.62 35.9419 368.761 26.4332 367.122 21.6493C366.516 19.7889 363.701 15.2708 360.992 17.7218C358.961 19.5232 359.638 23.244 356.645 25.0748C354.151 26.6104 348.592 25.5473 345.242 25.8426C340.289 26.3151 338.151 25.7245 333.625 25.7245C329.563 25.7245 325.358 25.6359 321.331 25.695C318.267 25.754 312.744 26.6695 310.748 24.5728C309.536 23.2735 308.753 18.1352 307.933 16.0091C307.149 13.942 303.122 11.048 300.628 12.052ZM83.3651 64.4385C86.9642 64.2613 90.8483 64.852 94.1979 63.405C97.4407 61.9875 98.189 60.3929 100.22 58.3258C103.605 54.8412 101.752 45.6574 102.216 41.1392C102.429 39.3674 102.323 33.4023 102.109 31.5715C101.752 28.5594 100.826 31.3943 101.004 22.7715C101.04 21.6789 100.683 19.5527 99.8994 18.6963C99.1155 17.7809 97.3338 16.8064 95.944 17.1312C90.8839 18.2534 92.8082 20.1433 91.3472 23.3621C90.5276 25.1339 91.953 26.0198 88.7103 26.1379C86.5722 26.2265 85.0755 26.0198 83.0444 25.9312C81.2627 25.8426 80.0511 25.9607 78.3406 25.9903C76.3451 25.9903 74.8485 25.4883 72.6391 25.6359C71 25.754 69.1826 26.197 67.5791 26.0198C65.7973 25.8426 64.4432 25.6654 62.6259 25.5768C55.3208 25.193 57.7083 27.5849 54.2518 18.6373C53.4322 16.5406 53.7886 16.1272 53.2897 14.4144C52.3632 11.0185 47.5525 11.55 46.5191 13.7353C45.949 15.0051 44.9869 20.2024 44.88 21.6493C44.8087 22.3581 45.3076 24.6319 45.3076 25.9903C45.3076 27.3191 45.5214 29.8587 45.2363 31.0399C44.7731 33.1366 45.4501 33.1366 45.3432 35.0856C45.0938 40.3124 45.6996 38.2158 44.7018 43.8265C44.4524 45.2144 44.9156 46.75 44.8443 48.2265C44.7374 49.9983 45.5214 51.2385 45.2007 52.5969C44.9156 53.8963 45.4501 55.1661 45.8777 56.4654C46.9468 59.6842 48.0158 60.4224 50.9378 62.3419C52.0781 63.0801 53.2184 63.8775 54.6082 64.2318C56.1048 64.6157 58.9199 63.8775 59.9177 64.9405C60.7729 65.8264 60.5591 68.2479 60.5591 69.3996C60.5591 70.9647 59.7751 71.762 58.3498 72.6479C52.2206 76.4278 43.2764 82.3633 41.9579 89.2143C40.9245 94.5593 40.9245 97.3942 41.0315 102.532C41.0671 104.127 40.3188 105.308 40.2119 106.991C40.105 108.645 40.2475 110.358 40.2475 111.982C40.2119 113.163 39.8555 113.075 39.6061 113.961C39.4279 114.61 39.5704 115.732 39.5704 116.441C39.5348 119.719 39.2497 122.672 39.0716 125.92C39.0003 127.161 38.644 128.637 38.7509 129.907C38.9647 132.151 38.1807 132.683 38.2163 134.1C38.2876 136.374 39.1072 135.429 38.2876 138.412C37.2542 142.191 43.8466 147.654 44.4167 139.416C44.5949 136.817 46.626 136.758 46.8399 131.383C46.9111 129.375 46.1272 130.291 46.9468 127.84C47.5169 126.216 47.7663 125.153 47.8376 123.44C47.9445 121.963 47.9802 120.546 48.0871 119.04C48.194 117.298 48.9779 116.323 49.0136 114.699C49.0136 112.041 50.4746 109.324 50.724 106.637C50.8309 105.781 50.6884 105.19 50.6527 104.393C50.5815 103.448 50.9734 103.182 51.0803 102.355C51.2942 100.879 51.2229 99.5203 51.7218 98.0143C52.1494 96.6264 52.7195 95.3271 52.6839 93.8801C52.6126 91.311 53.1471 91.9016 54.0024 89.864C55.4277 86.3204 62.1983 81.4184 66.1893 79.8533C70.0378 78.3768 70.5011 77.7566 71.8552 74.5083C72.746 72.4117 71.6414 66.6533 72.3897 65.1768C72.8173 64.2909 75.383 63.0801 75.9175 65.0291C76.06 65.6493 76.2382 69.0452 76.2382 69.8425C76.2026 73.1795 75.3117 74.3902 77.9843 77.5204C81.5121 81.5955 87.6056 77.7271 92.4519 85.6116C93.3071 87.0291 94.1267 87.2949 94.9463 88.4761C95.4095 89.1257 96.0509 91.9902 95.944 92.6989C95.552 96.1834 95.6946 98.1324 96.3004 101.617C96.6567 103.655 96.8705 109.177 96.8349 111.332C96.7992 113.222 97.405 113.311 97.0487 115.437C96.8705 116.677 96.9418 118.597 97.1912 119.837C97.6188 122.111 97.5119 126.127 98.581 128.076C100.006 130.675 99.5075 133.096 99.6144 134.041C99.6856 134.809 100.078 135.399 100.149 136.197C100.363 137.762 100.327 138.766 101.218 140.272C101.289 140.449 103.463 143.461 103.499 143.491C106.064 145.706 107.953 140.124 108.38 138.766C108.808 137.319 108.309 135.429 108.559 133.953C108.808 132.506 109.271 131.059 109.271 129.582C109.271 126.304 108.523 124.237 108.523 120.93C108.523 119.424 108.701 117.652 108.63 116.205C108.452 113.636 107.133 113.045 107.739 107.169C107.917 105.426 107.703 104.393 107.703 102.68C107.739 99.5794 106.456 88.1217 104.817 85.8184C103.356 83.7808 101.859 81.5955 99.5787 80.119C97.9039 79.056 94.9463 75.7486 93.4496 75.158C91.2759 74.3311 87.855 72.6184 85.9308 71.3486C82.3317 68.9271 84.0421 67.4506 83.3651 64.4385ZM396.983 65.5607C398.48 65.2654 401.723 65.5902 403.469 65.4721C404.93 65.354 406.996 64.7929 408.065 66.0332C409.277 67.4801 408.849 69.0748 408.849 70.817C408.849 72.1754 409.455 74.5378 408.101 75.4533C405.5 77.166 401.331 75.8076 399.228 74.0654C397.126 72.3231 397.838 72.4707 397.375 70.4922C397.161 69.5768 396.734 66.2694 396.983 65.5607ZM405.286 46.9862C407.531 46.6318 408.386 47.4882 408.386 49.3486C408.351 52.4493 408.849 49.8506 408.707 53.6896C408.6 55.6976 406.925 55.3728 405.108 55.6385C403.469 55.9043 396.805 56.3768 396.662 54.4869C396.627 53.5419 396.948 50.9432 397.197 49.9983C397.482 48.699 398.943 48.2265 400.155 47.5177C401.794 46.4842 403.397 47.311 405.286 46.9862ZM420.431 55.8748C420.288 54.7526 420.359 53.3647 420.359 52.2426C420.395 50.9137 419.967 50.1164 420.039 49.0533C420.252 46.1594 422.996 46.9271 425.419 47.0748C428.805 47.2815 428.555 47.252 430.373 49.6144C431.762 51.4157 431.263 53.1875 430.871 55.2251C430.194 55.3137 428.733 55.2842 428.021 55.1661L422.996 55.7271C422.391 55.9338 421.143 56.0224 420.431 55.8748ZM420.538 94.8841C420.039 92.5512 419.362 87.7969 420.181 85.6116C421.963 80.9459 430.266 86.8519 438.711 80.7096C441.811 78.4358 442.025 76.8707 442.31 73.5929C442.666 69.6949 442.773 68.4251 442.381 64.5271C442.096 61.6922 442.809 58.5325 442.56 55.2251C442.346 52.0949 442.132 48.8761 442.346 45.7459C442.56 42.7043 442.453 40.6077 439.174 38.7473C435.682 36.7688 433.829 37.2708 429.981 37.3889C426.31 37.4775 422.533 36.946 418.72 37.0641C415.05 37.1527 412.591 37.1231 408.956 37.0641C405.464 36.9755 401.687 37.3889 397.945 37.3594C390.605 37.2708 385.331 39.0131 385.723 45.805C385.901 48.6104 385.58 51.2976 385.83 54.1325C386.008 56.613 386.329 61.5446 385.83 63.8184C384.939 68.1298 385.153 75.9848 388.787 79.4103C397.446 87.5606 402.008 81.4774 407.745 84.0761C409.918 85.0801 409.562 90.8975 409.241 92.7284C408.564 96.5378 404.039 95.4452 400.547 95.5633C396.377 95.6814 392.6 95.8291 388.36 95.8291C385.545 95.8291 378.988 95.0318 377.491 97.2761C373.607 103.182 391.175 103.212 394.311 103.034C397.625 102.887 401.972 102.975 405.25 103.271C410.453 103.743 408.707 107.228 408.671 110.535C408.6 113.665 408.778 117.002 408.778 120.191C408.743 123.381 409.42 125.625 409.669 128.637C409.776 130.261 409.669 131.826 409.812 133.421C409.954 135.016 410.524 136.344 410.809 137.88C411.308 140.361 411.308 144.613 415.905 143.343C416.404 142.664 418.114 131.177 418.257 129.582C418.328 128.637 418.328 127.279 418.471 126.422C418.756 124.532 419.362 125.123 419.611 123.204C419.896 120.871 419.468 118.567 419.504 116.205C419.575 113.813 416.76 103.832 420.609 103.093C421.5 102.916 432.76 103.064 435.29 103.064C437.143 103.064 438.604 102.798 440.101 102.798C442.346 105.663 440.992 107.818 441.027 110.86C441.027 112.277 441.17 113.813 441.277 115.26C441.384 116.677 442.061 118.036 442.061 119.365C441.989 123.381 441.989 122.613 443.094 126.393C443.807 128.903 444.199 131.885 444.84 134.366C445.588 137.171 449.009 137.821 450.114 134.1C450.934 131.265 452.181 119.985 452.074 117.091C452.038 115.673 451.504 114.167 451.824 112.779C452.252 110.712 452.573 110.889 452.145 108.616C451.824 106.873 452.181 106.371 452.395 104.747C452.608 103.33 452.145 102.06 452.145 100.642C452.181 99.225 452.608 97.9257 452.573 96.4492C452.502 94.766 452.573 93.4962 452.715 91.813C452.929 88.8304 451.254 86.7929 454.497 84.46C456.314 83.1311 461.41 81.6251 462.372 84.1942C462.836 85.4935 462.479 86.7633 463.156 88.2103C463.869 89.7163 464.154 89.5982 464.368 91.3405C464.617 93.5848 465.686 96.5673 466.328 98.8116C467.04 101.41 468.109 103.743 468.573 106.371C469.036 108.881 470.604 111.096 471.602 113.488C472.1 114.64 472.457 115.91 472.849 117.091C473.526 119.099 477.41 123.971 478.586 126.54C480.118 129.936 489.027 141.689 493.374 142.516C494.978 142.812 496.189 141.571 495.975 140.567C495.762 139.622 494.408 138.293 493.909 137.437C491.45 133.48 488.278 128.43 486.996 124.178C486.461 122.377 486.639 122.347 485.463 120.812L481.9 114.315L480.047 106.755C479.619 105.19 479.014 104.511 478.515 103.212C478.087 102.03 478.194 100.672 477.624 99.166C477.196 98.0734 476.448 96.5378 476.234 95.4747C476.02 94.4707 475.236 93.3485 474.987 91.9016C474.666 90.2774 474.595 89.5687 473.989 87.9445C473.027 85.4935 470.711 82.6586 475.058 81.9794C478.23 81.507 482.114 81.8613 485.535 81.2117C487.993 80.7687 492.198 80.8868 493.802 79.8828C497.187 77.6976 494.265 75.6009 490.987 75.158C489.276 74.9217 487.673 74.9808 485.998 74.715C484.466 74.4492 483.04 74.0654 481.437 74.0358C470.675 73.8291 471.031 74.9808 468.715 66.417C468.038 63.8479 468.003 61.1016 467.432 58.5325C466.256 53.601 469.178 55.6976 473.383 55.4614C476.697 55.2842 479.833 54.3687 483.005 54.1325C485.855 53.9258 489.454 54.5755 491.129 52.0359C494.372 47.1929 478.835 47.1043 476.234 47.2225C474.809 47.2815 467.86 47.0453 467.04 46.3956C465.651 45.2439 466.043 40.1647 466.114 38.4225C466.256 35.2923 465.651 33.2547 465.508 30.4493C465.472 29.0909 465.829 27.8211 465.722 26.3742C465.615 24.7795 465.08 23.6279 465.152 21.9742C465.223 19.6118 465.08 15.9795 463.976 13.7943C462.622 11.1957 459.13 10.9004 456.528 12.3473C453.392 14.0896 453.072 15.9795 453.606 18.9916C454.069 21.6493 453.784 23.9527 454.497 26.5513C455.922 31.8963 454.64 37.7728 455.138 43.0587C455.495 47.1929 455.21 47.6359 449.829 47.3701C446.372 47.1929 444.377 48.1674 444.84 51.3862C445.268 54.103 448.19 55.3432 451.183 55.4614C457.277 55.6976 456.493 54.3392 457.455 59.8318C457.633 60.8063 457.205 61.013 457.241 61.6627C457.312 62.2533 457.669 62.3419 457.775 63.3459C457.882 64.3795 458.631 65.8264 458.738 67.1553C458.916 69.2519 461.481 72.5889 457.562 73.2385C453.285 73.9768 452.822 73.8586 448.938 75.5123C448.475 75.6895 446.301 77.2546 445.767 77.6385C445.018 78.1996 444.127 79.7056 443.45 80.5029C439.923 84.8439 442.666 94.1459 440.03 95.2385C438.64 95.8291 436.787 95.9177 435.326 95.5633C434.114 95.2975 423.281 95.5633 420.538 94.8841Z" fill="url(#paint0_linear_229_197)"/>
</g>
</g>
<defs>
<linearGradient id="paint0_linear_229_197" x1="247.999" y1="101.185" x2="247.999" y2="47.6187" gradientUnits="userSpaceOnUse">
<stop stop-color="#E62129"/>
<stop offset="1" stop-color="#1D1819"/>
</linearGradient>
<clipPath id="clip0_229_197">
<rect width="496" height="149" fill="white"/>
</clipPath>
<clipPath id="clip1_229_197">
<rect width="496" height="149" fill="white"/>
</clipPath>
</defs>
</svg>
